<svg xmlns="http://www.w3.org/2000/svg" viewBox="0 0 24 24"><g fill="none" stroke="#303c42" stroke-linecap="round" stroke-linejoin="round" data-name="&lt;Group&gt;"><circle cx="6" cy="7" r=".5" data-name="&lt;Path&gt;"/><circle cx="11" cy="7" r=".5" data-name="&lt;Path&gt;"/><path d="M23.5 15c0-3-3.13-5.5-7-5.5s-7 2.5-7 5.5 3.13 5.5 7 5.5a8.69 8.69 0 0 0 2.35-.32l2.65 1.32-.83-2.09A5.22 5.22 0 0 0 23.5 15Z" data-name="&lt;Path&gt;"/><circle cx="14" cy="13" r=".5" data-name="&lt;Path&gt;"/><circle cx="19" cy="13" r=".5" data-name="&lt;Path&gt;"/><path d="M17 9.52v0c0-3.87-3.69-7-8.25-7S.5 5.63.5 9.5A6.68 6.68 0 0 0 3.73 15L2.5 17.5l2.85-1.63a9.46 9.46 0 0 0 3.4.63 9.75 9.75 0 0 0 1-.06" data-name="&lt;Path&gt;"/></g></svg>