<svg xmlns="http://www.w3.org/2000/svg" viewBox="0 0 24 24"><path fill="#303c42" d="M24 15c0-3.044-2.85-5.56-6.526-5.944C17.204 5.128 13.4 2 8.75 2 3.925 2 0 5.364 0 9.5c0 2.221 1.119 4.279 3.086 5.71l-1.033 2.066A.498.498 0 0 0 2.5 18c.085 0 .17-.021.248-.065l2.646-1.513c1.283.458 2.676.626 4.025.537C10.437 19.307 13.223 21 16.5 21a9.25 9.25 0 0 0 2.297-.292l2.479 1.239a.496.496 0 0 0 .562-.079.5.5 0 0 0 .126-.554l-.68-1.698C22.993 18.48 24 16.782 24 15z"/><path fill="#7cb342" d="M5.528 15.405a.51.51 0 0 0-.428.032l-1.415.809.489-.978A.501.501 0 0 0 4 14.625C2.094 13.38 1 11.512 1 9.5 1 5.916 4.477 3 8.75 3c4.083 0 7.43 2.663 7.722 6.001C12.349 9.013 9 11.699 9 15c0 .332.043.656.108.973-1.207.047-2.444-.13-3.58-.568z"/><path fill="#fff" d="M20.413 18.981a.5.5 0 0 0-.212.617l.347.866-1.473-.736a.499.499 0 0 0-.359-.034A8.206 8.206 0 0 1 16.5 20c-3.584 0-6.5-2.243-6.5-5s2.916-5 6.5-5 6.5 2.243 6.5 5c0 1.57-.943 3.021-2.587 3.981z"/><path d="M20.413 18.981C22.057 18.021 23 16.57 23 15c0-2.757-2.916-5-6.5-5-.084 0-.166.007-.25.01 3.468.102 6.25 2.298 6.25 4.99 0 1.57-.943 3.021-2.587 3.981a.5.5 0 0 0-.212.617l.222.554.625.312-.347-.866a.5.5 0 0 1 .212-.617z" opacity=".1"/><path fill="#fff" d="M1.5 10c0-3.584 3.477-6.5 7.75-6.5 2.253 0 4.278.814 5.694 2.101C13.531 4.026 11.283 3 8.75 3 4.477 3 1 5.916 1 9.5c0 1.648.744 3.193 2.057 4.385C2.059 12.774 1.5 11.425 1.5 10z" opacity=".2"/><path fill="#303c42" d="M6 6a1.001 1.001 0 0 0 0 2 1.001 1.001 0 0 0 0-2zm5 2a1.001 1.001 0 1 0-1-1c0 .552.449 1 1 1zm3 4a1.001 1.001 0 0 0 0 2 1.001 1.001 0 0 0 0-2zm5 0a1.001 1.001 0 0 0 0 2 1.001 1.001 0 0 0 0-2z"/><linearGradient id="a" x1=".448" x2="23.711" y1="7.095" y2="17.942" gradientUnits="userSpaceOnUse"><stop offset="0" stop-color="#fff" stop-opacity=".2"/><stop offset="1" stop-color="#fff" stop-opacity="0"/></linearGradient><path fill="url(#a)" d="M24 15c0-3.044-2.85-5.56-6.526-5.944C17.204 5.128 13.4 2 8.75 2 3.925 2 0 5.364 0 9.5c0 2.221 1.119 4.279 3.086 5.71l-1.033 2.066A.498.498 0 0 0 2.5 18c.085 0 .17-.021.248-.065l2.646-1.513c1.283.458 2.676.626 4.025.537C10.437 19.307 13.223 21 16.5 21a9.25 9.25 0 0 0 2.297-.292l2.479 1.239a.496.496 0 0 0 .562-.079.5.5 0 0 0 .126-.554l-.68-1.698C22.993 18.48 24 16.782 24 15z"/></svg>